<?xml version="1.0" encoding="utf-8"?>
<!-- Generator: Adobe Illustrator 19.0.0, SVG Export Plug-In . SVG Version: 6.00 Build 0)  -->
<svg version="1.1" id="Layer_1" xmlns="http://www.w3.org/2000/svg" xmlns:xlink="http://www.w3.org/1999/xlink" x="0px" y="0px"
	 viewBox="0 0 300 300" style="enable-background:new 0 0 300 300;" xml:space="preserve">
<style type="text/css">
	.st0{fill:#FFFFFF;}
	.st1{display:none;}
	.st2{display:inline;fill:#FFFFFF;}
</style>
<g id="XMLID_3_">
	<path id="XMLID_105_" class="st0" d="M152.2,188.8c6.8-8.5,13.3-16.8,19.9-25.1c1.4-1.8,3-3.1,5.4-3.1c6.1-0.1,12.2-0.2,18.1,1.5
		c15.5,4.5,24.9,14.8,28.6,30.4c0.7,3,0.8,6.2,0.9,9.3c0.1,8.3,0,16.6,0,24.9c0,3.8-1.9,5.8-5.7,6c-0.5,0-1,0-1.5,0
		c-44,0-87.9,0-131.9,0c-0.8,0-1.5,0-2.3-0.1c-2.7-0.4-4.5-2.3-4.5-5.1c0-9.6-0.1-19.3,0-28.9c0.2-14.8,10.7-29.4,24.5-35
		c7.6-3.1,15.4-3.3,23.4-3c2.1,0.1,3.4,1.2,4.7,2.7c6.3,8,12.7,15.9,19.1,23.8C151.2,187.7,151.6,188.1,152.2,188.8z M214.5,222.3
		c0.1-0.4,0.2-0.7,0.2-1.1c0-7,0.2-14.1,0-21.1c-0.3-10.5-5-18.7-13.6-24.5c-6.3-4.2-13.5-5-20.8-4.6c-0.5,0-1.1,0.5-1.4,0.9
		c-7.4,9.2-14.7,18.4-22,27.5c-3.1,3.9-6.2,3.8-9.4-0.1c-6.4-7.9-12.9-15.7-19-23.9c-2.6-3.5-5.3-4.6-9.5-4.5
		c-14.7,0.3-27.5,10.9-29.1,25.5c-0.8,7.7-0.4,15.5-0.5,23.2c0,0.9,0,1.8,0,2.8C131.2,222.3,172.8,222.3,214.5,222.3z"/>
	<path id="XMLID_102_" class="st0" d="M191,109.9c-0.6,12.6-4.8,23.8-12.5,33.7c-5.8,7.5-12.9,13.3-22.7,14.9
		c-6.9,1.1-13.1-0.7-18.9-4.3c-8.9-5.6-14.7-13.7-18.9-23c-3.2-7.1-5.1-14.6-4.9-22.4c0.4-14.3,6.7-25.4,18.9-32.6
		c12.4-7.3,25.5-7.8,38.3-1c11.9,6.3,18.4,16.6,20.3,29.8c0.1,0.8,0.2,1.7,0.3,2.5C191,108.3,191,109.1,191,109.9z M180.7,109.2
		c-0.2-9.7-4.4-18-13.2-23.8c-15.8-10.5-37.8-2.3-43.1,15.9c-1.9,6.7-1.3,13.2,0.7,19.7c2.9,9.3,7.6,17.4,15.4,23.3
		c7.2,5.5,14.5,5.6,22,0.6c4.6-3.1,8.1-7.4,10.9-12.2C177.8,125.6,180.4,118.1,180.7,109.2z"/>
	<path id="XMLID_99_" class="st0" d="M267.3,122.8c-0.4,8.7-3.7,17.8-9.9,25.6c-2.4,3.1-5.4,5.9-8.6,8.1c-8.6,5.8-17.9,5.5-26.5-0.5
		c-4.6-3.2-7.9-7.4-10.8-12c-4.2-6.9-7-14.4-7-22.6c0-16.8,13-30.4,29.8-31.4C252.8,88.9,267.4,104.2,267.3,122.8z M214.7,121.4
		c0.3,2.1,0.5,4.3,1.1,6.3c2,7.8,5.6,14.7,12.1,19.7c5.2,4,10.3,4.2,15.6,0.4c7.5-5.4,11.3-13.1,13.2-22c2-9.8-2.8-19.5-11.8-23.7
		C230.9,95.5,214.9,105.8,214.7,121.4z"/>
	<path id="XMLID_96_" class="st0" d="M99.3,124.1c-1.3,12.4-6.7,25-19.8,33.2c-8.4,5.2-16.8,4.2-24.8-1.1
		c-11.2-7.4-20.6-25.7-17.6-40.7c2.8-14.4,14.6-24.8,29.3-25.6C84.6,89,99.6,103.5,99.3,124.1z M46.9,121.5
		c0.5,8.9,3.9,16.9,10.2,23.4c7,7.3,14.2,7.4,21.5,0.4c6.2-6,9.5-13.4,10.5-21.9c0.8-7.6-2-13.9-7.8-18.6c-6.6-5.3-14.2-6.2-22-2.6
		C51.3,105.9,47.3,112.5,46.9,121.5z"/>
	<path id="XMLID_95_" class="st0" d="M20.6,210.7c1.1,0,1.9,0,2.8,0c14.7,0,29.5,0,44.2,0c4.6,0,7.1,3.8,5,7.6
		c-0.9,1.7-2.3,2.6-4.2,2.6c-17.7,0-35.3,0-53,0c-2.8,0-4.9-1.9-4.9-4.7c-0.1-8.2-0.5-16.5,0.2-24.7c1-11,6.6-19.4,16.3-24.8
		c7-3.9,14.7-4.6,22.5-3.8c1.2,0.1,2.6,1.1,3.4,2.1c6.2,7.4,12.4,14.9,18.5,22.4c1.4,1.7,2.4,3.5,1.6,5.8c-0.6,1.8-1.8,2.9-3.7,3.3
		c-2,0.4-3.7,0-5.1-1.7c-5.3-6.4-10.6-12.8-15.8-19.2c-1.4-1.8-2.9-2.6-5.2-2.5c-13.2,0.1-22.6,9.5-22.6,22.7
		C20.6,200.6,20.6,205.4,20.6,210.7z"/>
	<path id="XMLID_94_" class="st0" d="M283.5,210.7c0-3.4,0.1-6.6,0-9.8c-0.1-3.5,0.1-7.2-0.6-10.6c-2.1-10.4-10.8-17.1-21.4-17.3
		c-3-0.1-4.6,1.1-6.3,3.2c-5,6.3-10.1,12.6-15.3,18.8c-1.6,2-4.6,2.1-6.9,0.6c-1.9-1.2-2.7-4-1.4-6.1c1.9-3,4.2-5.7,6.4-8.5
		c3.9-4.9,7.9-9.7,11.8-14.6c2-2.5,4.3-3.9,7.7-3.8c5.9,0.2,11.8,0.2,17.2,2.9c12.5,6.2,19,16.3,19.1,30.3c0.1,6.3,0,12.6,0,18.8
		c0,4.4-1.9,6.2-6.3,6.2c-17,0-34.1,0-51.1,0c-4.1,0-6.6-3.5-5.1-7.1c0.9-2.1,2.6-3.1,5-3.1c5.1,0,10.2,0,15.3,0
		c9.8,0,19.5,0,29.3,0C281.7,210.7,282.4,210.7,283.5,210.7z"/>
</g>
<g id="XMLID_2_" class="st1">
	<path id="XMLID_30_" class="st2" d="M154.4,132c6.2-9.5,12.1-18.7,18-27.9c13.5-20.9,27-41.8,40.5-62.8c2.1-3.3,4.9-5.1,8.8-4.6
		c6.4,0.9,9.3,7.5,5.8,13.2c-3.8,6.2-7.8,12.3-11.8,18.4c-16.6,25.8-33.2,51.6-49.8,77.3c-1,1.5-1,2.5,0,4
		c12.7,19.5,25.3,39.1,37.9,58.7c1,1.5,2,2,3.7,1.7c15.2-1.9,30.4-3.7,45.5-5.6c7-0.8,14-1.7,21-2.5c1-0.1,2.1-0.1,3.1,0
		c4.2,0.2,6.8,2.3,7.4,6.5c0.6,4.5,1.1,9.1,1.4,13.6c0.3,4.8-1.8,7.4-6.6,8.1c-7.8,1.1-15.7,1.9-23.6,2.9
		c-14.5,1.8-29.1,3.6-43.6,5.6c-5.7,0.8-9.8-0.9-13-5.9c-14.3-22.4-28.8-44.7-43.2-67c-0.5-0.7-1-1.4-1.6-2.3
		c-0.6,0.8-1,1.4-1.5,2.1c-14.5,22.8-28.9,45.5-43.3,68.3c-2.5,3.9-5.7,6-10.4,5.5c-7.4-0.8-14.8-1.6-22.2-2.6
		c-14.6-1.8-29.2-3.7-43.8-5.6c-0.2,0-0.5,0-0.7-0.1c-8-1.1-10.2-3.8-9.2-11.9c0.4-3.5,0.6-7,1.2-10.5c0.8-4.5,3.3-6.7,7.8-6.4
		c6.9,0.5,13.7,1.3,20.5,2.1c15.3,1.8,30.5,3.5,45.8,5.7c4.1,0.6,6-0.6,8.1-4c11.9-18.8,24.1-37.4,36.2-56.1c1-1.6,1.1-2.6,0-4.2
		c-20.4-31.6-40.7-63.3-61.1-94.9c-2.6-4.1-2.7-7.6-0.4-10.7c3.7-4.9,10.6-4.7,14,0.6c6.7,10.2,13.2,20.4,19.8,30.7
		c12.5,19.4,25,38.8,37.4,58.2C153.2,130.4,153.7,131,154.4,132z"/>
	<path id="XMLID_29_" class="st2" d="M130,250.7c4.2,3.9,9.2,4.6,14.2,5.3c9.9,1.3,19.8,1.3,29.5-1.2c2.8-0.7,5.4-2.1,8.1-3.3
		c0,3.4,0.2,7.2-0.1,11c-0.1,1.2-1.7,2.9-3,3.3c-4.1,1.3-8.2,2.6-12.5,3.1c-9.2,1.1-18.5,0.9-27.6-1.1c-0.9-0.2-1.7-0.4-2.5-0.7
		c-5.4-1.8-6.1-2.8-6.1-8.4C130,256.1,130,253.6,130,250.7z"/>
	<path id="XMLID_28_" class="st2" d="M153.8,253.7c-4.7-0.7-10.9-1.6-17-2.7c-1.6-0.3-3.2-1.1-4.5-2.1c-2-1.4-2.1-3.2,0.1-4.3
		c2.4-1.3,4.9-2.3,7.6-2.8c11.5-2.3,23-2.3,34.5,0.6c1.6,0.4,3.2,1.1,4.6,2c2.3,1.4,2.3,3.5-0.1,4.6c-3.4,1.5-7,2.7-10.7,3.3
		C164,253,159.6,253.1,153.8,253.7z"/>
</g>
<g id="XMLID_1_" class="st1">
	<path id="XMLID_83_" class="st2" d="M197.8,43.8c0,4.2,0,8.4,0,12.9c0.8,0,1.7,0,2.6,0c11.2,0,22.3,0,33.5,0c3.8,0,4.9,1,4.9,4.8
		c0,72.3,0,144.5,0,216.8c0,0.7,0,1.5-0.2,2.2c-0.4,1.8-1.7,2.6-3.4,2.6c-1.8,0-3.2-0.8-3.4-2.6c-0.2-2.4-0.3-4.8-0.3-7.2
		c0-4.9,0-9.7,0-14.7c-5,0-9.8,0-15,0c0,0.8,0,1.5,0,2.3c0,5.9,0,11.7,0,17.6c0,3.1-1.2,4.6-3.6,4.6c-2.4,0-3.5-1.4-3.5-4.7
		c0-6.5,0-13,0-19.8c-5,0-9.8,0-14.9,0c0,0.8-0.1,1.7-0.1,2.6c0,5.8,0,11.6,0,17.4c0,3-1.3,4.5-3.7,4.5c-2.3-0.1-3.5-1.5-3.5-4.5
		c0-6.6,0-13.2,0-20c-5,0-9.8,0-15,0c0,2.4,0,4.8,0,7.1c0,4.1,0,8.3,0,12.4c0,3.4-1.1,4.9-3.5,4.9c-2.5,0-3.6-1.4-3.6-4.8
		c0-5.6,0-11.2,0-16.9c0-0.9,0-1.8,0-2.8c-5.1,0-9.9,0-15,0c0,3.1,0,6,0,9c0,4,0.1,7.9,0,11.9c-0.1,2.3-1.4,3.6-3.5,3.6
		c-2.1,0-3.5-1.3-3.5-3.6c-0.1-5.9,0-11.7,0-17.6c0-1,0-2,0-3.2c-4.9,0-9.6,0-14.7,0c0,1.9,0,3.9,0,5.8c0,4.8,0,9.6,0,14.4
		c0,2.7-1.2,4.2-3.4,4.2c-2.4,0-3.6-1.4-3.6-4.3c0-6.7,0-13.4,0-20.2c-5,0-9.9,0-15,0c0,6.1,0,12.1,0,18.1c0,1.1,0,2.2-0.2,3.2
		c-0.3,2.2-1.6,3.2-3.7,3.1c-2.1-0.1-3.3-1.4-3.4-3.8c-0.1-5.4,0-10.7,0-16.1c0-1.5,0-2.9,0-4.5c-5,0-9.8,0-15,0c0,0.7,0,1.5,0,2.3
		c0,6,0,11.9,0,17.9c0,2.8-1.1,4.2-3.3,4.3c-2.4,0.1-3.8-1.3-3.8-4.1c-0.1-5.6,0-11.2,0-16.9c0-1.1,0-2.1,0-3.4c-5,0-9.8,0-15,0
		c0,0.8,0,1.7,0,2.5c0,6,0,11.9,0,17.9c0,2.6-1.2,3.9-3.3,4c-2.3,0.1-3.6-1.3-3.7-4c0-0.4,0-0.8,0-1.2c0-72.1,0-144.2,0-216.3
		c0-4.5,0.9-5.4,5.3-5.4c10.7,0,21.3,0,32,0c0.9,0,1.8,0,2.8,0c0-4.4,0-8.6,0-12.9c-0.9,0-1.7-0.1-2.5-0.1c-14.7,0-29.4,0-44.2-0.1
		c-1.8,0-2.7,0.6-3.5,2.2c-1,2-2.3,4-3.9,5.7c-3.4,3.5-8,3.4-10.6-0.7c-2.1-3.3-3.5-7.1-4.3-10.9c-1.6-7.1-1.2-14.3,1.1-21.3
		c0.8-2.5,2.3-4.9,4.1-6.9c2.3-2.7,6.1-2.9,8.7-0.4c2,1.9,3.7,4.4,5.1,6.9c0.8,1.4,1.6,1.9,3.2,1.9c9.2-0.1,18.4,0,27.5,0
		c57.1,0,114.3,0,171.4,0c1.9,0,3.1-0.4,3.9-2.4c1-2.1,2.4-4.2,4.1-5.8c3.2-3.2,7.2-2.9,10.2,0.5c3.2,3.5,4.3,7.9,5,12.5
		c1.1,7.3,0.9,14.5-1.7,21.5c-0.8,2-1.9,4-3.4,5.7c-2.6,3-6.7,3.2-9.5,0.4c-1.9-2-3.2-4.5-4.9-6.7c-0.5-0.7-1.4-1.6-2.1-1.6
		c-16.7-0.1-33.4-0.1-50.1,0C198.4,43.6,198.1,43.7,197.8,43.8z M231.3,64.1c-56.6,0-112.9,0-169.4,0c0,62.5,0,124.8,0,187.2
		c56.5,0,112.9,0,169.4,0C231.3,188.9,231.3,126.6,231.3,64.1z M259.6,15.8c-1.1,2-2.1,3.6-2.9,5.3c-2,4.8-2,4.9-7.3,4.9
		c-0.6,0-1.2,0-1.7,0c-67.8,0-135.6,0-203.3,0c-3.7,0-3.8-0.3-5.1-3.7c-0.8-2.2-2-4.2-3.1-6.4c-5.2,5.3-5,26,0,30.1
		c1-2,2.2-3.9,3-5.9c1.5-3.9,1.5-4,5.6-4c67.6,0,135.2,0,202.8,0c0.7,0,1.3,0,2,0c3.7,0.1,6.7,0.8,7.3,5.4c0.2,1.7,1.8,3.3,2.8,5.2
		C264.6,39.8,264.4,22.9,259.6,15.8z M120.6,56.5c17.4,0,34.6,0,51.8,0c0-4.4,0-8.5,0-12.8c-17.3,0-34.5,0-51.8,0
		C120.6,48.1,120.6,52.3,120.6,56.5z M102.8,43.7c0,4.4,0,8.6,0,12.9c3.5,0,6.9,0,10.3,0c0-4.4,0-8.6,0-12.9
		C109.6,43.7,106.3,43.7,102.8,43.7z M190.3,43.8c-3.6,0-7,0-10.5,0c0,4.4,0,8.5,0,12.8c3.5,0,7,0,10.5,0
		C190.3,52.3,190.3,48.2,190.3,43.8z"/>
	<path id="XMLID_60_" class="st2" d="M149,102.5c5.8,0,11.6,0.1,17.4,0c2.5,0,4.1,0.8,5.2,3.3c2.7,6,8,8.8,14,10.4
		c2.4,0.7,4.9,0.9,7.3,1.3c3.5,0.4,4.8,1.4,4.3,5c-1.3,9-2.3,18-4.5,26.8c-4.7,19.4-13.2,37.2-26.2,52.5c-4.6,5.5-10,10.3-15.1,15.3
		c-2.3,2.2-3.5,2.1-6,0c-12-9.8-21.4-21.7-28.7-35.4c-10.1-18.8-15.5-39-17.5-60.2c-0.4-3.9,1-5.2,5.1-5.4
		c7.6-0.3,14.5-2.4,19.9-8.2c0.2-0.2,0.5-0.4,0.7-0.7c2.1-4.5,5.9-5,10.3-4.7C139.7,102.7,144.4,102.5,149,102.5z M144.2,109.8
		c-3.9,0-7.6-0.1-11.3,0.1c-0.7,0-1.6,0.7-2.1,1.4c-3.1,3.8-6.7,6.9-11.3,8.6c-3.4,1.3-6.9,2.1-10.4,2.9c-1.7,0.4-2.7,0.7-2.3,2.8
		c0.9,4.9,1.5,10,2.5,14.9c4,18.6,11,36,22.2,51.4c3.7,5,7.9,9.6,11.9,14.4c0.2-0.1,0.5-0.3,0.7-0.4
		C144.2,174,144.2,142,144.2,109.8z M151.7,109.8c0,32.3,0,64.2,0,96.7c12-11.4,20.5-24.6,26.7-39.2c5.9-13.7,9.6-28,10.9-42.9
		c-0.8-0.1-1.2-0.2-1.6-0.3c-9.1-1.7-17.2-5.2-22.5-13.4c-0.3-0.5-1-0.9-1.6-0.9C159.7,109.7,155.8,109.8,151.7,109.8z"/>
</g>
<g id="XMLID_5_" class="st1">
	<path id="XMLID_77_" class="st2" d="M232.4,227.9c0,5.5,0,10.7,0,15.9c0,3.4-1.5,6-4.6,7.5c-2.9,1.4-5.7,1.1-8.3-0.8
		c-2.2-1.6-3.3-3.8-3.3-6.6c0-4.6,0-9.2,0-13.7c0-0.7,0-1.4,0-2.3c-0.9,0-1.5,0-2.2,0c-41.7,0-83.3,0-125,0c-1.8,0-2.3,0.5-2.2,2.2
		c0.1,4.5,0.1,9,0,13.5c0,4.9-3.5,8.6-8.1,8.5c-4.6,0-8-3.7-8.1-8.6c0-4.5,0-8.9,0-13.4c0-0.7,0-1.4,0-2.3c-0.9,0-1.7,0-2.4,0
		c-14.9,0-29.8,0-44.7,0c-6.4,0-9.5-3.1-9.5-9.4c0-42.3,0-84.6,0-126.9c0-6,3.2-9.2,9.2-9.2c85.5,0,171,0,256.5,0
		c6,0,9.1,3.2,9.1,9.2c0,42.4,0,84.7,0,127.1c0,6-3.2,9.2-9.2,9.2c-14.9,0-29.9,0-44.8,0C234.2,227.9,233.4,227.9,232.4,227.9z
		 M30.3,98.6c0,37.8,0,75.4,0,113c80.9,0,161.6,0,242.3,0c0-37.7,0-75.4,0-113C191.8,98.6,111.1,98.6,30.3,98.6z"/>
	<path id="XMLID_76_" class="st2" d="M151.6,50.1c7.9,0,15.8,0,23.6,0c4.5,0,7.7,2.6,8.4,6.7c0.8,4.1-2,8.3-6.1,9.2
		c-1,0.2-2,0.3-3,0.3c-15.4,0-30.8,0-46.1,0c-4.8,0-8.1-2.3-9-6.3c-1.2-5.3,2.6-9.9,8.3-10C135.7,50,143.7,50.1,151.6,50.1z"/>
	<path id="XMLID_67_" class="st2" d="M46.5,155c0-10.5,0-21,0-31.5c0-5.4,3.2-8.7,8.6-8.7c18.4,0,36.9,0,55.3,0
		c5.5,0,8.7,3.2,8.7,8.6c0,21.2,0,42.4,0,63.5c0,5.3-3.3,8.6-8.5,8.6c-18.5,0-37,0-55.5,0c-5.4,0-8.6-3.3-8.6-8.7
		C46.5,176.2,46.5,165.6,46.5,155z M103,131.1c-13.5,0-26.9,0-40.2,0c0,16.2,0,32.2,0,48.2c13.5,0,26.8,0,40.2,0
		C103,163.2,103,147.2,103,131.1z"/>
	<path id="XMLID_64_" class="st2" d="M256.6,155.3c0,10.5,0,21,0,31.5c0,5.5-3.2,8.8-8.8,8.8c-18.4,0-36.8,0-55.1,0
		c-5.5,0-8.7-3.3-8.7-8.8c0-21.1,0-42.1,0-63.2c0-5.7,3.2-8.8,8.9-8.8c18.3,0,36.6,0,54.9,0c5.7,0,8.8,3.2,8.8,8.8
		C256.6,134.2,256.6,144.8,256.6,155.3z M200.1,179.3c13.5,0,26.9,0,40.2,0c0-16.2,0-32.2,0-48.2c-13.5,0-26.8,0-40.2,0
		C200.1,147.1,200.1,163.1,200.1,179.3z"/>
	<path id="XMLID_63_" class="st2" d="M159.6,134.9c0,4.5-3.6,8.2-8,8.2c-4.5,0-8.1-3.6-8.1-8.1c0-4.4,3.5-8,7.9-8.1
		C155.9,126.8,159.6,130.4,159.6,134.9z"/>
	<path id="XMLID_62_" class="st2" d="M143.5,175.4c0-4.5,3.7-8.1,8.1-8.1c4.5,0,8,3.7,8,8.2c0,4.4-3.6,8-8,8
		C147.1,183.5,143.5,179.9,143.5,175.4z"/>
</g>
</svg>
