<svg xmlns="http://www.w3.org/2000/svg" xmlns:xlink="http://www.w3.org/1999/xlink" preserveAspectRatio="xMidYMid" width="99.619" height="99.999" viewBox="0 0 40.844 41">
  <defs>
    <style>
      .cls-1 {
        fill: #c6c6c6;
        fill-rule: evenodd;
      }
    </style>
  </defs>
  <path d="M37.478,37.755 C35.312,39.877 32.313,40.999 28.806,40.999 L12.030,40.999 C8.589,40.999 5.615,39.874 3.431,37.747 C1.181,35.556 -0.008,32.505 -0.008,28.922 L-0.008,11.995 C-0.008,4.828 4.792,0.012 11.936,0.012 L28.901,0.012 C32.388,0.012 35.379,1.173 37.550,3.367 C39.705,5.545 40.844,8.529 40.844,11.995 L40.844,29.016 C40.844,32.576 39.680,35.598 37.478,37.755 ZM37.084,11.995 C37.084,9.546 36.322,7.481 34.881,6.025 C33.432,4.560 31.364,3.785 28.901,3.785 L11.936,3.785 C9.457,3.785 7.389,4.542 5.955,5.973 C4.514,7.411 3.753,9.493 3.753,11.995 L3.753,28.922 C3.753,31.461 4.547,33.577 6.050,35.040 C7.518,36.470 9.586,37.226 12.030,37.226 L28.806,37.226 C31.311,37.226 33.401,36.476 34.850,35.056 C36.311,33.624 37.084,31.536 37.084,29.016 L37.084,11.995 ZM31.324,11.982 C30.006,11.982 28.938,10.910 28.938,9.588 C28.938,8.266 30.006,7.194 31.324,7.194 C32.642,7.194 33.710,8.266 33.710,9.588 C33.710,10.910 32.642,11.982 31.324,11.982 ZM20.418,30.934 C14.623,30.934 9.908,26.204 9.908,20.390 C9.908,14.576 14.623,9.845 20.418,9.845 C26.213,9.845 30.928,14.576 30.928,20.390 C30.928,26.204 26.213,30.934 20.418,30.934 ZM20.418,13.618 C16.696,13.618 13.669,16.656 13.669,20.390 C13.669,24.124 16.696,27.162 20.418,27.162 C24.140,27.162 27.168,24.124 27.168,20.390 C27.168,16.656 24.140,13.618 20.418,13.618 Z" class="cls-1"/>
</svg>
