<svg xmlns="http://www.w3.org/2000/svg" xmlns:xlink="http://www.w3.org/1999/xlink" preserveAspectRatio="xMidYMid" width="99.252" height="82.543" viewBox="0 0 45.656 37.97">
  <defs>
    <style>
      .cls-1 {
        fill: #c6c6c6;
        fill-rule: evenodd;
      }
    </style>
  </defs>
  <path d="M45.643,4.495 C43.964,5.259 42.158,5.774 40.263,6.005 C42.197,4.819 43.682,2.941 44.382,0.701 C42.571,1.800 40.567,2.598 38.433,3.028 C36.725,1.165 34.290,0.001 31.596,0.001 C26.423,0.001 22.229,4.293 22.229,9.587 C22.229,10.338 22.312,11.069 22.472,11.771 C14.686,11.372 7.784,7.556 3.164,1.756 C2.358,3.171 1.896,4.817 1.896,6.575 C1.896,9.900 3.549,12.834 6.063,14.554 C4.528,14.503 3.083,14.073 1.820,13.354 C1.819,13.394 1.819,13.434 1.819,13.476 C1.819,18.119 5.048,21.994 9.334,22.875 C8.548,23.094 7.720,23.211 6.865,23.211 C6.261,23.211 5.675,23.152 5.103,23.039 C6.295,26.847 9.755,29.619 13.853,29.697 C10.647,32.268 6.608,33.800 2.219,33.800 C1.463,33.800 0.718,33.754 -0.015,33.666 C4.131,36.387 9.054,37.973 14.344,37.973 C31.574,37.973 40.996,23.366 40.996,10.698 C40.996,10.283 40.987,9.869 40.969,9.458 C42.799,8.107 44.388,6.418 45.643,4.495 Z" class="cls-1"/>
</svg>
